<svg width="24" height="24" viewBox="0 0 24 24" fill="none" xmlns="http://www.w3.org/2000/svg">
<path d="M15.09 3.32998C15.28 3.32998 15.47 3.39998 15.62 3.54998C15.91 3.83998 15.91 4.31998 15.62 4.60998L9.10003 11.13C8.62003 11.61 8.62003 12.39 9.10003 12.87L15.62 19.39C15.91 19.68 15.91 20.16 15.62 20.45C15.33 20.74 14.85 20.74 14.56 20.45L8.04002 13.93C7.53003 13.42 7.24003 12.73 7.24003 12C7.24003 11.27 7.52003 10.58 8.04003 10.07L14.56 3.54998C14.71 3.40998 14.9 3.32998 15.09 3.32998Z" fill="black"/>
</svg>