<svg width="37" height="41" viewBox="0 0 37 41" fill="none" xmlns="http://www.w3.org/2000/svg">
<circle cx="23" cy="14.2954" r="14" fill="#FFC700" fill-opacity="0.5"/>
<path d="M16 37.7355C15.6 37.7355 15.2 37.6421 14.8667 37.4555C12.3734 36.0955 7.98669 34.6555 5.24002 34.2955L4.85335 34.2421C3.10669 34.0288 1.66669 32.3888 1.66669 30.6155V14.5088C1.66669 13.4555 2.08002 12.4955 2.84002 11.8021C3.60002 11.1088 4.58669 10.7755 5.62669 10.8688C8.56002 11.0955 12.9867 12.5621 15.4934 14.1355L15.8134 14.3221C15.9067 14.3755 16.1067 14.3755 16.1867 14.3355L16.4 14.2021C18.9067 12.6288 23.3334 11.1355 26.28 10.8821C26.3067 10.8821 26.4134 10.8821 26.44 10.8821C27.4134 10.7888 28.4134 11.1355 29.16 11.8288C29.92 12.5221 30.3334 13.4821 30.3334 14.5355V30.6288C30.3334 32.4155 28.8934 34.0421 27.1334 34.2555L26.6934 34.3088C23.9467 34.6688 19.5467 36.1221 17.1067 37.4688C16.7867 37.6555 16.4 37.7355 16 37.7355ZM5.30669 12.8555C4.88002 12.8555 4.49335 13.0021 4.18669 13.2821C3.85335 13.5888 3.66669 14.0288 3.66669 14.5088V30.6155C3.66669 31.4021 4.34669 32.1621 5.10669 32.2688L5.50669 32.3221C8.50669 32.7221 13.1067 34.2288 15.7734 35.6821C15.8934 35.7355 16.0667 35.7488 16.1334 35.7221C18.8 34.2421 23.4267 32.7221 26.44 32.3221L26.8934 32.2688C27.6534 32.1755 28.3334 31.4021 28.3334 30.6155V14.5221C28.3334 14.0288 28.1467 13.6021 27.8134 13.2821C27.4667 12.9755 27.0267 12.8288 26.5334 12.8555C26.5067 12.8555 26.4 12.8555 26.3734 12.8555C23.8267 13.0821 19.72 14.4555 17.48 15.8555L17.2667 16.0021C16.5334 16.4555 15.4934 16.4555 14.7867 16.0155L14.4667 15.8288C12.1867 14.4288 8.08002 13.0688 5.46669 12.8555C5.41335 12.8555 5.36002 12.8555 5.30669 12.8555Z" fill="#3360FF"/>
<path d="M16 36.6154C15.4533 36.6154 15 36.162 15 35.6154V15.6154C15 15.0687 15.4533 14.6154 16 14.6154C16.5467 14.6154 17 15.0687 17 15.6154V35.6154C17 36.1754 16.5467 36.6154 16 36.6154Z" fill="#3360FF"/>
<path d="M10.3333 20.6154H7.33331C6.78665 20.6154 6.33331 20.162 6.33331 19.6154C6.33331 19.0687 6.78665 18.6154 7.33331 18.6154H10.3333C10.88 18.6154 11.3333 19.0687 11.3333 19.6154C11.3333 20.162 10.88 20.6154 10.3333 20.6154Z" fill="#3360FF"/>
<path d="M11.3333 24.6154H7.33331C6.78665 24.6154 6.33331 24.162 6.33331 23.6154C6.33331 23.0687 6.78665 22.6154 7.33331 22.6154H11.3333C11.88 22.6154 12.3333 23.0687 12.3333 23.6154C12.3333 24.162 11.88 24.6154 11.3333 24.6154Z" fill="#3360FF"/>
</svg>
