<svg width="37" height="40" viewBox="0 0 37 40" fill="none" xmlns="http://www.w3.org/2000/svg">
<circle cx="23" cy="14" r="14" fill="#FFC700" fill-opacity="0.5"/>
<path d="M16 38.3333C8.09335 38.3333 1.66669 31.9066 1.66669 24C1.66669 16.0933 8.09335 9.66663 16 9.66663C23.9067 9.66663 30.3334 16.0933 30.3334 24C30.3334 31.9066 23.9067 38.3333 16 38.3333ZM16 11.6666C9.20002 11.6666 3.66669 17.2 3.66669 24C3.66669 30.8 9.20002 36.3333 16 36.3333C22.8 36.3333 28.3334 30.8 28.3334 24C28.3334 17.2 22.8 11.6666 16 11.6666Z" fill="#3360FF"/>
<path d="M20.9467 29.24C20.7734 29.24 20.6 29.2 20.44 29.0933L16.3067 26.6266C15.28 26.0133 14.52 24.6666 14.52 23.48V18.0133C14.52 17.4666 14.9734 17.0133 15.52 17.0133C16.0667 17.0133 16.52 17.4666 16.52 18.0133V23.48C16.52 23.96 16.92 24.6666 17.3334 24.9066L21.4667 27.3733C21.9467 27.6533 22.0934 28.2666 21.8134 28.7466C21.6134 29.0666 21.28 29.24 20.9467 29.24Z" fill="#3360FF"/>
</svg>
