<svg width="37" height="41" viewBox="0 0 37 41" fill="none" xmlns="http://www.w3.org/2000/svg">
<circle cx="23" cy="14.4194" r="14" fill="#FFC700" fill-opacity="0.5"/>
<path d="M16 30.8523C15.4667 30.8523 14.9333 30.8121 14.4267 30.7185C11.6 30.3038 9.02666 28.6718 7.39999 26.2506C6.26666 24.5383 5.66666 22.5451 5.66666 20.485C5.66666 14.773 10.3067 10.1178 16 10.1178C21.6933 10.1178 26.3333 14.773 26.3333 20.485C26.3333 22.5451 25.7333 24.5383 24.6 26.2506C22.96 28.6852 20.3867 30.3038 17.5333 30.7319C17.0667 30.8122 16.5333 30.8523 16 30.8523ZM16 12.1244C11.4 12.1244 7.66666 15.8699 7.66666 20.485C7.66666 22.1572 8.14666 23.7624 9.05332 25.1269C10.3733 27.0799 12.44 28.3909 14.7333 28.7253C15.5867 28.8725 16.4267 28.8725 17.2133 28.7253C19.5467 28.3909 21.6133 27.0666 22.9333 25.1135C23.84 23.749 24.32 22.1438 24.32 20.4716C24.3333 15.8699 20.6 12.1244 16 12.1244Z" fill="#3360FF"/>
<path d="M8.62577 38.6644C8.43911 38.6644 8.26577 38.6377 8.07911 38.5976C7.21244 38.3969 6.54577 37.728 6.34577 36.8585L5.87911 34.8921C5.85244 34.7717 5.75911 34.678 5.62577 34.6379L3.42577 34.1162C2.59911 33.9156 1.94577 33.3002 1.71911 32.4842C1.49244 31.6682 1.71911 30.7853 2.31911 30.1834L7.51911 24.9663C7.73244 24.7523 8.02577 24.6453 8.31911 24.672C8.61244 24.6988 8.87911 24.8593 9.05244 25.1134C10.3724 27.0665 12.4391 28.3908 14.7458 28.7253C15.5991 28.8724 16.4391 28.8724 17.2258 28.7253C19.5591 28.3908 21.6258 27.0665 22.9458 25.1134C23.1058 24.8593 23.3858 24.6988 23.6791 24.672C23.9724 24.6453 24.2658 24.7523 24.4791 24.9663L29.6791 30.1834C30.2791 30.7853 30.5058 31.6682 30.2791 32.4842C30.0524 33.3002 29.3858 33.9289 28.5724 34.1162L26.3724 34.6379C26.2524 34.6647 26.1591 34.7583 26.1191 34.8921L25.6524 36.8585C25.4524 37.728 24.7858 38.3969 23.9191 38.5976C23.0524 38.8116 22.1591 38.5039 21.5991 37.8217L15.9991 31.3606L10.3991 37.8351C9.94577 38.3701 9.30577 38.6644 8.62577 38.6644ZM8.11911 27.2136L3.73244 31.6147C3.61244 31.7351 3.62577 31.8689 3.65244 31.9491C3.66577 32.016 3.73244 32.1498 3.89244 32.1765L6.09244 32.6983C6.95911 32.8989 7.62577 33.5678 7.82577 34.4373L8.29244 36.4037C8.33244 36.5776 8.46577 36.6311 8.54577 36.6579C8.62577 36.6712 8.75911 36.6846 8.87911 36.5509L13.9858 30.6516C11.7191 30.2101 9.63911 28.9928 8.11911 27.2136ZM18.0124 30.6382L23.1191 36.5241C23.2391 36.6712 23.3858 36.6712 23.4658 36.6445C23.5458 36.6311 23.6658 36.5642 23.7191 36.3903L24.1858 34.4239C24.3858 33.5544 25.0524 32.8855 25.9191 32.6849L28.1191 32.1632C28.2791 32.1231 28.3458 32.0026 28.3591 31.9358C28.3858 31.8689 28.3991 31.7217 28.2791 31.6013L23.8924 27.2003C22.3591 28.9794 20.2924 30.1967 18.0124 30.6382Z" fill="#3360FF"/>
<path d="M18.5202 25.6887C18.1735 25.6887 17.7602 25.5951 17.2669 25.3008L16.0002 24.5383L14.7335 25.2874C13.5735 25.983 12.8135 25.5817 12.5335 25.381C12.2535 25.1804 11.6535 24.5784 11.9602 23.2541L12.2802 21.8763L11.2135 20.8863C10.6269 20.2977 10.4135 19.5888 10.6135 18.9467C10.8135 18.3046 11.4002 17.8497 12.2269 17.716L13.6535 17.4752L14.3335 15.977C14.7202 15.2145 15.3202 14.7864 16.0002 14.7864C16.6802 14.7864 17.2935 15.2279 17.6669 15.9903L18.4535 17.5688L19.7735 17.7294C20.5869 17.8631 21.1735 18.3179 21.3869 18.96C21.5869 19.6021 21.3735 20.3111 20.7869 20.8997L19.6802 22.01L20.0269 23.2541C20.3335 24.5784 19.7335 25.1804 19.4535 25.381C19.3069 25.5014 18.9869 25.6887 18.5202 25.6887ZM12.8135 19.669L13.7335 20.592C14.1602 21.0201 14.3735 21.7425 14.2402 22.3311L13.9869 23.4012L15.0535 22.7725C15.6269 22.4381 16.4002 22.4381 16.9602 22.7725L18.0269 23.4012L17.7869 22.3311C17.6535 21.7291 17.8535 21.0201 18.2802 20.592L19.2002 19.669L18.0402 19.4684C17.4802 19.3747 16.9202 18.9601 16.6669 18.4517L16.0002 17.1408L15.3335 18.4785C15.0935 18.9734 14.5335 19.4015 13.9735 19.4951L12.8135 19.669Z" fill="#3360FF"/>
</svg>
