<svg width="336" height="262" viewBox="0 0 336 262" fill="none" xmlns="http://www.w3.org/2000/svg">
<circle cx="3.1084" cy="3.35034" r="3" fill="#3360FF"/>
<path d="M20.0544 249.676L21.3332 254.598L26.7031 255.77L21.3332 256.942L20.0544 261.865L18.7757 256.942L13.4058 255.77L18.7757 254.598L20.0544 249.676Z" fill="#FFC700"/>
<circle cx="318.92" cy="76.4856" r="2.5" stroke="#FFC700"/>
<path d="M326.894 214.718L330.369 209.464L334.775 213.905L326.894 214.718Z" stroke="#FFC700"/>
<path d="M258.444 8.5502C262.658 1.80001 269.8 -2.09199 281.184 4.61805C289.953 9.78704 292.931 20.6329 284.236 24.0398C282.153 24.8561 278.654 23.3974 276.881 21.9137C274.078 19.5667 274.057 17.153 275.821 15.1014C279.027 11.3744 287.501 9.49008 293.885 13.2435C303.875 19.1173 306.602 28.4499 305.185 36.0075C304.903 37.5129 300.152 47.9077 299.939 41.2804C299.9 40.0776 299.978 36.5085 300.12 37.7252C300.355 39.7424 300.374 40.8632 299.723 42.7273C299.594 43.0974 298.525 44.894 299.955 44.6396C302.884 44.1186 305.908 43.7837 308.809 43.2073" stroke="#FFC700" stroke-width="2" stroke-linecap="round"/>
<path d="M32.1713 221.443C28.7461 225.817 27.8061 231.261 34.6316 236.57C39.8895 240.66 47.5343 239.679 47.8204 233.398C47.889 231.894 46.1801 230.104 44.8345 229.392C42.7059 228.265 41.1456 228.882 40.2108 230.511C38.5126 233.471 39.1595 239.217 42.981 242.197C48.9614 246.861 55.5756 246.118 60.1357 243.268C61.044 242.701 66.7003 237.044 62.3819 238.64C61.5982 238.93 59.3147 239.909 60.1301 239.679C61.4819 239.299 62.2085 239.018 63.2671 238.129C63.4773 237.952 64.4004 236.821 64.5506 237.774C64.8582 239.726 65.3066 241.689 65.5723 243.638" stroke="#3360FF" stroke-width="2" stroke-linecap="round"/>
</svg>