<svg width="852" height="835" viewBox="0 0 852 835" fill="none" xmlns="http://www.w3.org/2000/svg">
<path d="M11.927 213.39C-47.4865 -2.61197 172.603 -24.5984 331.435 40.623C424.106 74.1655 484.965 -30.1492 599.766 11.4815C714.568 53.1122 576.945 184.249 752.605 251.552C928.265 318.855 842.509 619.983 688.98 623.452C535.45 626.922 577.636 677.572 424.106 793.444C270.576 909.317 11.9274 748.344 76.2438 578.352C140.56 408.361 76.2431 447.216 11.927 213.39Z" stroke="white" stroke-opacity="0.1" stroke-width="3"/>
<path d="M342.36 381.493C335.504 360.92 367.613 327.731 393.432 341.895C417.075 354.866 441.151 346.118 457.057 351.9C498.932 367.123 483.529 375.181 502.248 393.261C525.027 415.262 535.896 472.872 483.529 472.872C440.459 472.872 453.346 493.859 421.095 503.158C388.844 512.457 352.269 496.628 352.269 454.954C352.269 439.304 353.777 415.758 342.36 381.493Z" stroke="white" stroke-opacity="0.1" stroke-width="3"/>
<path d="M41.9619 227.623C-12.6736 29.387 190.327 6.38219 337.067 66.962C423.463 98.6343 480.977 3.00755 586.788 41.3793C694.96 80.6093 568.448 200.557 729.841 263.385C891.602 326.57 814.631 605.56 670.298 608.714C526.81 611.868 566.332 659.822 423.828 766.005C281.324 872.189 42.863 724.412 101.333 566.085C159.802 410.124 101.469 443.307 41.9619 227.623Z" stroke="white" stroke-opacity="0.1" stroke-width="3"/>
<path d="M71.9968 241.856C22.1394 61.3866 208.051 37.3633 342.698 93.3016C422.819 123.104 476.99 36.1649 573.81 71.2777C675.352 108.107 559.951 216.866 707.077 275.219C854.94 334.285 786.753 591.137 651.616 593.976C518.17 596.814 555.029 642.072 423.55 738.567C292.071 835.062 73.7988 700.48 126.421 553.818C179.044 411.888 126.695 439.398 71.9968 241.856Z" stroke="white" stroke-opacity="0.1" stroke-width="3"/>
<path d="M102.033 256.09C56.9538 93.387 225.776 68.3453 348.332 119.642C422.177 147.574 473.004 69.3229 560.834 101.177C655.746 135.605 551.456 233.175 684.314 287.054C818.279 342.001 758.876 576.716 632.936 579.239C509.531 581.762 543.727 624.323 423.273 711.129C302.819 797.936 104.736 676.548 151.512 541.552C198.287 413.653 151.922 435.49 102.033 256.09Z" stroke="white" stroke-opacity="0.1" stroke-width="3"/>
<path d="M132.069 270.325C91.7672 125.388 243.5 99.3283 353.964 145.983C421.534 172.045 469.017 102.482 547.856 131.077C636.139 163.105 542.96 249.486 661.55 298.889C781.617 349.719 730.998 562.295 614.254 564.503C500.892 566.71 532.424 606.574 422.995 683.693C313.567 760.811 135.672 652.618 176.601 529.287C217.529 415.419 177.149 431.584 132.069 270.325Z" stroke="white" stroke-opacity="0.1" stroke-width="3"/>
<path d="M162.104 285.282C126.581 158.111 261.225 131.032 359.596 173.046C420.891 197.238 465.03 136.362 534.879 161.698C616.532 191.326 534.463 266.517 638.787 311.446C744.955 358.157 703.12 548.595 595.573 550.488C492.253 552.38 521.121 589.547 422.718 656.977C324.315 724.407 166.608 629.409 201.69 517.743C236.772 417.907 202.375 428.398 162.104 285.282Z" stroke="white" stroke-opacity="0.1" stroke-width="3"/>
<path d="M192.142 301.091C161.396 191.687 278.951 163.59 365.23 200.962C420.25 223.283 461.045 171.096 521.904 193.173C596.927 220.399 525.969 284.402 616.025 324.856C708.296 367.449 675.245 535.749 576.894 537.326C483.615 538.903 509.82 573.373 422.443 631.115C335.065 688.856 197.547 607.053 226.782 507.052C256.017 421.247 227.604 426.065 192.142 301.091Z" stroke="white" stroke-opacity="0.1" stroke-width="3"/>
<path d="M222.179 316.948C196.211 225.31 296.677 196.194 370.864 228.925C419.608 249.376 457.059 205.877 508.927 224.695C577.321 249.521 517.474 302.334 593.263 338.314C671.635 376.788 647.368 522.95 558.214 524.211C474.977 525.473 498.519 557.247 422.166 605.3C345.814 653.353 228.485 584.745 251.872 496.409C275.26 424.635 252.832 423.781 222.179 316.948Z" stroke="white" stroke-opacity="0.1" stroke-width="3"/>
<path d="M252.217 332.873C231.027 259.001 314.404 228.867 376.499 256.956C418.968 275.537 453.075 240.726 495.953 256.285C557.717 278.71 508.981 320.335 570.502 351.839C634.976 386.195 619.493 510.219 539.536 511.165C466.341 512.111 487.218 541.189 421.891 579.553C356.564 617.918 259.424 562.504 276.964 485.834C294.505 428.091 278.061 421.564 252.217 332.873Z" stroke="white" stroke-opacity="0.1" stroke-width="3"/>
<path d="M282.257 348.899C265.846 292.793 332.133 261.641 382.136 285.088C418.329 301.799 449.093 275.676 482.98 287.976C538.115 308 500.49 338.436 547.744 365.466C598.319 395.703 591.62 497.589 520.86 498.22C457.706 498.851 475.92 525.231 421.619 553.907C367.317 582.583 290.365 540.365 302.059 475.36C313.752 431.647 303.293 419.448 282.257 348.899Z" stroke="white" stroke-opacity="0.1" stroke-width="3"/>
<path d="M312.302 365.077C300.669 326.738 349.867 294.567 387.778 313.373C417.696 328.214 445.115 310.778 470.012 319.819C518.517 337.443 492.003 356.69 524.989 379.245C561.666 405.364 563.752 485.112 502.188 485.427C449.076 485.742 464.627 509.426 421.35 528.414C378.074 547.402 321.31 518.378 327.157 465.038C333.004 435.357 328.528 417.484 312.302 365.077Z" stroke="white" stroke-opacity="0.1" stroke-width="3"/>
</svg>
